<svg xmlns="http://www.w3.org/2000/svg" viewBox="0 0 113.8 85.4"><linearGradient id="a" gradientUnits="userSpaceOnUse" x1="78.906" y1="952.013" x2="81.882" y2="954.988" gradientTransform="translate(0 -915.855)"><stop offset="0" stop-color="#e29407"/><stop offset=".143" stop-color="#e89510"/><stop offset=".73" stop-color="#f59e3c"/><stop offset="1" stop-color="#f7a70e"/></linearGradient><path d="M56.9 56.9h28.5l28.5-28.5H85.4L56.9 56.9z" fill="url(#a)"/><linearGradient id="b" gradientUnits="userSpaceOnUse" x1="85.35" y1="842.475" x2="85.35" y2="815.772" gradientTransform="translate(0 -758.9)"><stop offset="0" stop-color="#e52c29"/><stop offset="1" stop-color="#e84236"/></linearGradient><path d="M113.8 56.9H56.9l25.4 25.4c1.7 1.7 4.4 1.7 6.1 0l25.4-25.4z" fill="url(#b)"/><linearGradient id="c" gradientUnits="userSpaceOnUse" x1="56.9" y1="787.35" x2="113.8" y2="787.35" gradientTransform="translate(0 -758.9)"><stop offset="0" stop-color="#ffdb66"/><stop offset=".551" stop-color="#ffdd09"/></linearGradient><path d="M81.6 3.8L60.7 24.7c-2.4 2.4-3.8 5.7-3.8 9.1v23.1L113.8 0H90.7c-3.4 0-6.7 1.4-9.1 3.8z" fill="url(#c)"/><linearGradient id="d" gradientUnits="userSpaceOnUse" x1="0" y1="816.45" x2="56.9" y2="816.45" gradientTransform="translate(0 -758.9)"><stop offset="0" stop-color="#89a83d"/><stop offset="1" stop-color="#abc948"/></linearGradient><path d="M56.9 32.7c0-1.2-.4-2.3-1.2-3L0 85.4h24.3c2.7 0 5.2-1.1 7.1-3l25.5-25.5V32.7z" fill="url(#d)"/><linearGradient id="e" gradientUnits="userSpaceOnUse" x1="41.927" y1="-259.038" x2="44.055" y2="-261.089" gradientTransform="matrix(1 0 0 -1 0 -186.908)"><stop offset="0" stop-color="#397ec0"/><stop offset=".151" stop-color="#3881c2"/><stop offset=".376" stop-color="#3a87c5"/><stop offset=".646" stop-color="#3d90c4"/><stop offset=".951" stop-color="#3e9bc2"/><stop offset="1" stop-color="#3a9ac0"/></linearGradient><path d="M56.9 56.9L31.4 82.4l-.4.4c-1.6 1.5-3.7 2.3-5.9 2.5h-.3 4.1c2.7 0 5.2-1 7.1-2.9l23.2-23.3c0 .1-2.3-2.2-2.3-2.2z" fill="url(#e)"/><linearGradient id="f" gradientUnits="userSpaceOnUse" x1="0" y1="787.35" x2="56.9" y2="787.35" gradientTransform="translate(0 -758.9)"><stop offset="0" stop-color="#397ec0"/><stop offset="1" stop-color="#289ecd"/></linearGradient><path d="M24.7 3.8L3.8 24.7C1.4 27.1 0 30.4 0 33.8v23.1L56.9 0H33.8c-3.4 0-6.7 1.4-9.1 3.8z" fill="url(#f)"/><linearGradient id="g" gradientUnits="userSpaceOnUse" x1="20.737" y1="-223.095" x2="35.213" y2="-237.571" gradientTransform="matrix(1 0 0 -1 0 -186.908)"><stop offset="0" stop-color="#3c9bc0"/><stop offset=".055" stop-color="#4ba3c9"/><stop offset=".183" stop-color="#5bafd7"/><stop offset=".337" stop-color="#69bae3"/><stop offset=".538" stop-color="#6fbfe9"/><stop offset=".972" stop-color="#72c0ea"/></linearGradient><path d="M28.4 28.5L0 56.9h28.5l27.2-27.2c-.8-.8-1.9-1.3-3-1.3l-24.3.1z" fill="url(#g)"/></svg>