<?xml version="1.0" standalone="no"?>
<!DOCTYPE svg PUBLIC "-//W3C//DTD SVG 20010904//EN"
 "http://www.w3.org/TR/2001/REC-SVG-20010904/DTD/svg10.dtd">
<svg version="1.0" xmlns="http://www.w3.org/2000/svg"
 width="600.000000pt" height="600.000000pt" viewBox="0 0 600.000000 600.000000"
 preserveAspectRatio="xMidYMid meet">
<metadata>
Created by potrace 1.14, written by Peter Selinger 2001-2017
</metadata>
<g transform="translate(0.000000,600.000000) scale(0.100000,-0.100000)"
fill="#000000" stroke="none">
<path d="M2902 5852 c-28 -11 -62 -28 -74 -38 -33 -28 -78 -78 -78 -87 0 -4
-8 -20 -19 -35 -10 -15 -72 -119 -136 -232 -65 -113 -126 -218 -136 -235 -11
-16 -22 -37 -26 -45 -4 -8 -26 -48 -50 -88 -24 -40 -43 -77 -43 -82 0 -6 -4
-10 -8 -10 -4 0 -13 -12 -19 -27 -7 -16 -17 -35 -23 -43 -9 -14 -220 -378
-275 -475 -12 -22 -48 -85 -80 -140 -95 -164 -311 -538 -413 -715 -52 -91
-118 -205 -147 -255 -29 -49 -162 -279 -295 -510 -358 -623 -361 -627 -386
-667 -13 -21 -24 -40 -24 -42 0 -3 -25 -46 -55 -97 -30 -50 -55 -93 -55 -94 0
-2 -27 -49 -60 -105 -33 -56 -60 -104 -60 -106 0 -2 -11 -21 -24 -42 -12 -20
-46 -77 -75 -127 -28 -49 -56 -97 -61 -105 -6 -8 -13 -22 -17 -30 -4 -8 -18
-33 -32 -55 -13 -22 -29 -49 -35 -60 -6 -11 -46 -81 -89 -155 -85 -149 -100
-199 -85 -282 18 -99 70 -167 163 -216 l50 -26 2760 0 2760 0 55 25 c130 61
195 192 165 333 -5 25 -65 142 -105 206 -9 15 -88 150 -128 220 -11 19 -36 64
-57 100 -21 36 -45 79 -55 95 -9 17 -50 87 -90 155 -40 69 -84 145 -98 170
-14 25 -57 99 -95 165 -39 66 -89 154 -112 195 -23 41 -57 100 -75 130 -18 30
-41 69 -50 85 -9 17 -93 161 -185 320 -92 160 -176 306 -187 325 -52 90 -130
227 -139 240 -45 74 -129 224 -129 231 0 5 -4 9 -10 9 -5 0 -10 5 -10 10 0 6
-33 68 -74 138 -41 70 -165 285 -276 477 -111 193 -235 406 -275 475 -40 69
-83 143 -95 165 -12 22 -37 65 -55 95 -18 30 -44 75 -57 100 -14 25 -72 126
-130 225 -57 99 -116 200 -130 225 -99 175 -123 212 -153 243 -74 77 -200 105
-303 69z"/>
</g>
</svg>
